:SAMPLES-PER-SECOND 30
:FULLY-SPECIFIED
:DEGREES
278
root  -6.27588 42.542 1.85322 -9.22766 -78.8197 8.52061
RightUpLeg  -10.0667 2.61378 2.37996
RightLeg  14.638 -5.98282 -3.08304
RightFoot  10.8679 -0.182318 1.41328
RightToes  -1.16417e-010 0 -3.6325e-017
Spine  18.1013 0.21856 1.75188
Spine1  8.38251 1.81639 -4.9105
HEad  -28.442 -8.76413 5.92535
LeftShoulder1  0.756524 -10.7052 3.62129
LeftArm  -14.8649 -40.061 -52.3438
LeftForeArm  16.6178 7.79724 -11.2812
LeftHand  0.0876609 -0.637964 -1.74535
RightShoulder  1.6726 7.29157 7.94872
RightArm  18.3154 12.5547 23.3589
RightForeArm  -18.3776 40.6512 10.6535
RightHand  -1.94981 9.3368 -15.6235
LeftUpLeg  -24.227 0.930984 -2.0189
LeftLeg  52.1116 7.37185 10.5355
LeftFoot  22.7167 1.77574 -6.31303
LeftToes  6.91183e-011 3.39355e-011 2.1261e-011
279
root  -6.38949 42.5578 1.73017 -9.85728 -80.3611 8.32309
RightUpLeg  -3.93803 6.04615 3.1521
RightLeg  21.1263 -7.21877 -3.16233
RightFoot  3.96029 -0.491952 3.75737
RightToes  -1.16417e-010 0 -3.6325e-017
Spine  17.6235 -0.412506 1.2495
Spine1  10.5093 1.45765 -6.21147
HEad  -30.1822 -5.63221 6.19994
LeftShoulder1  1.93639 -11.6756 -4.95134
LeftArm  -7.72418 -26.3282 -47.1998
LeftForeArm  28.096 7.71536 -14.3575
LeftHand  -0.0736382 -0.610548 1.61624
RightShoulder  0.967212 5.61603 2.4175
RightArm  -1.30535 24.1916 16.7621
RightForeArm  -20.6124 41.783 11.1728
RightHand  -2.20496 8.82278 -18.2188
LeftUpLeg  -27.8145 0.359641 -2.99064
LeftLeg  48.2439 2.74692 3.80545
LeftFoot  19.2868 2.73894 -10.4012
LeftToes  6.91183e-011 3.39355e-011 2.1261e-011
280
root  -6.78848 42.0546 1.64633 -8.90509 -80.4114 6.80417
RightUpLeg  2.6234 4.35669 4.65103
RightLeg  26.1365 -6.31691 -3.61524
RightFoot  4.2138 -0.521762 4.06893
RightToes  -1.16417e-010 0 -3.6325e-017
Spine  16.7681 -0.876163 2.30393
Spine1  10.7391 1.58441 -8.17807
HEad  -29.4067 -5.35113 7.45137
LeftShoulder1  3.3398 -11.3163 -15.7823
LeftArm  6.63743 -15.861 -40.0341
LeftForeArm  19.7491 5.3208 -17.3575
LeftHand  -0.132211 1.01514 3.34606
RightShoulder  0.534159 2.73857 0.293956
RightArm  -30.6978 28.8746 8.97916
RightForeArm  -21.5635 46.0727 12.9994
RightHand  -2.22195 8.0167 -19.3855
LeftUpLeg  -29.5869 -2.56552 -3.91032
LeftLeg  43.1273 -0.495218 -0.170298
LeftFoot  19.6842 4.31395 -15.8574
LeftToes  6.91183e-011 3.39355e-011 2.1261e-011
281
root  -7.53381 41.1085 1.50487 -3.33942 -78.7216 2.13771
RightUpLeg  8.66362 1.00452 6.64099
RightLeg  26.7265 -8.89559 -5.02334
RightFoot  7.54366 -0.378089 2.56398
RightToes  -1.16417e-010 0 -3.6325e-017
Spine  14.87 -0.396209 4.07913
Spine1  7.92159 2.46185 -10.1267
HEad  -25.7753 -8.79649 10.4008
LeftShoulder1  4.35397 -11.1792 -23.384
LeftArm  13.5477 -7.19309 -34.662
LeftForeArm  13.293 3.45477 -18.3881
LeftHand  -0.114751 1.23713 3.07024
RightShoulder  0.339982 -0.113265 1.94031
RightArm  -58.6184 26.2998 2.03762
RightForeArm  -18.8344 56.8305 19.262
RightHand  -2.12641 7.93605 -18.6991
LeftUpLeg  -31.3723 -5.89699 -4.24551
LeftLeg  40.2629 0.595697 0.920807
LeftFoot  21.964 5.19534 -17.7752
LeftToes  6.91183e-011 3.39355e-011 2.1261e-011
282
root  -8.34056 39.8179 1.3346 7.07813 -77.0448 -6.06458
RightUpLeg  13.0223 -1.9976 9.19936
RightLeg  23.2104 -11.6803 -5.70769
RightFoot  6.85394 -0.274558 2.02681
RightToes  -1.16417e-010 0 -3.6325e-017
Spine  12.1984 1.17079 5.98426
Spine1  3.71661 4.07164 -11.5746
HEad  -21.2848 -13.984 13.0276
LeftShoulder1  4.94862 -12.2554 -25.2622
LeftArm  -1.36375 3.86171 -32.856
LeftForeArm  26.2128 6.70194 -15.8046
LeftHand  -0.14333 0.696351 3.47871
RightShoulder  0.132314 -2.35344 3.08659
RightArm  -79.1432 21.4887 -2.12743
RightForeArm  -8.90641 69.1508 33.9216
RightHand  -2.18483 7.91701 -19.2096
LeftUpLeg  -33.4869 -8.01403 -3.10794
LeftLeg  41.5905 2.97678 3.21958
LeftFoot  19.2909 4.1521 -15.4322
LeftToes  6.91183e-011 3.39355e-011 2.1261e-011
283
root  -8.89987 38.3199 1.29534 18.1094 -76.9888 -15.6836
RightUpLeg  15.6795 -2.08773 10.8749
RightLeg  20.7051 -8.50917 -3.79233
RightFoot  -0.351899 -0.353781 3.91156
RightToes  -1.16417e-010 0 -3.6325e-017
Spine  10.017 2.67946 7.64163
Spine1  1.45685 5.6066 -11.9837
HEad  -18.6791 -16.5311 12.7898
LeftShoulder1  5.36846 -13.9409 -24.5618
LeftArm  -12.2876 16.9949 -34.0394
LeftForeArm  30.1738 7.96313 -12.2385
LeftHand  -0.192541 0.231314 4.35506
RightShoulder  -0.073428 -4.43232 0.218052
RightArm  -94.6467 20.2634 -3.00654
RightForeArm  18.0189 76.7876 63.5973
RightHand  -2.42326 7.66907 -21.6271
LeftUpLeg  -33.956 -9.23457 -1.52002
LeftLeg  45.4374 4.45074 5.24305
LeftFoot  7.37544 1.71963 -10.2984
LeftToes  6.91183e-011 3.39355e-011 2.1261e-011
284
root  -9.149 36.812 1.42103 23.3353 -78.2394 -22.0159
RightUpLeg  18.1039 1.10183 11.0476
RightLeg  22.7259 -0.991223 -0.631591
RightFoot  -11.1708 -0.117178 5.39066
RightToes  -1.16417e-010 0 -3.6325e-017
Spine  9.25183 2.55141 7.84293
Spine1  3.32476 5.61107 -10.9314
HEad  -19.7258 -13.668 10.3551
LeftShoulder1  5.64103 -14.5953 -24.9782
LeftArm  -14.8793 26.0141 -36.7194
LeftForeArm  20.0631 7.67097 -10.8644
LeftHand  -0.211878 -0.0250286 4.58627
RightShoulder  -0.12755 -6.09069 -4.21827
RightArm  -106.113 25.3688 -2.4012
RightForeArm  58.316 77.9001 101.905
RightHand  -2.50588 6.81792 -23.811
LeftUpLeg  -32.2363 -10.3836 -1.87181
LeftLeg  49.8497 6.27906 8.38285
LeftFoot  -7.76384 0.15778 -4.34473
LeftToes  6.91183e-011 3.39355e-011 2.1261e-011
285
root  -9.15886 35.7422 1.5984 21.779 -80.1896 -23.2022
RightUpLeg  20.5242 3.96363 10.56
RightLeg  27.308 2.94668 1.38226
RightFoot  -19.613 0.14923 3.76478
RightToes  -1.16417e-010 0 -3.6325e-017
Spine  9.63226 0.998723 6.17819
Spine1  7.89035 4.02934 -8.95616
HEad  -23.3139 -7.50272 8.06424
LeftShoulder1  5.61526 -13.8777 -26.1665
LeftArm  -16.6607 25.9355 -41.061
LeftForeArm  10.9241 7.70163 -10.956
LeftHand  -0.24914 0.0694595 5.48292
RightShoulder  -0.0801036 -5.78782 -5.54541
RightArm  -111.695 34.568 -2.48406
RightForeArm  92.1597 75.0486 129.284
RightHand  -2.29631 6.14389 -23.1028
LeftUpLeg  -30.4164 -10.5724 -3.94703
LeftLeg  53.8971 7.86602 11.8697
LeftFoot  -15.8499 0.0273983 -0.98941
LeftToes  6.91183e-011 3.39355e-011 2.1261e-011
286
root  -8.99264 35.6603 1.86601 34.5936 -83.3468 -38.2844
RightUpLeg  20.4173 4.06156 9.02288
RightLeg  32.2747 2.36618 1.35637
RightFoot  -19.6986 0.119694 3.62759
RightToes  -1.16417e-010 0 -3.6325e-017
Spine  10.1444 0.0838275 5.8108
Spine1  11.7365 3.08339 -7.8976
HEad  -25.8888 -1.94386 6.45416
LeftShoulder1  5.34714 -13.1846 -25.893
LeftArm  -16.6325 17.061 -46.2878
LeftForeArm  6.34815 7.8327 -11.9175
LeftHand  -0.352325 0.638646 8.61876
RightShoulder  0.052868 -2.78074 -3.10202
RightArm  -106.961 44.1457 0.21919
RightForeArm  112.273 72.0827 141.919
RightHand  -1.99596 6.42408 -19.746
LeftUpLeg  -28.8657 -8.2702 -4.80682
LeftLeg  54.944 8.65843 13.4874
LeftFoot  -14.8214 0.0738031 -0.585904
LeftToes  6.91183e-011 3.39355e-011 2.1261e-011
287
root  -8.61493 36.5958 2.3449 92.4213 -85.6025 -97.1276
RightUpLeg  15.0176 3.38841 5.58765
RightLeg  39.437 1.27801 0.841156
RightFoot  -7.93305 -0.225396 5.57214
RightToes  -1.16417e-010 0 -3.6325e-017
Spine  11.4841 0.576799 7.85493
Spine1  12.6748 4.04361 -8.3419
HEad  -26.0905 2.12825 3.81349
LeftShoulder1  5.0371 -13.373 -23.6074
LeftArm  -16.1031 3.40433 -50.8351
LeftForeArm  2.95015 7.86146 -12.2687
LeftHand  -0.462798 0.990717 12.1825
RightShoulder  0.42428 1.10912 0.860961
RightArm  -89.4234 52.2501 12.0964
RightForeArm  108.792 74.7644 132.85
RightHand  -1.69291 6.49019 -16.719
LeftUpLeg  -26.2239 -4.11147 -4.20962
LeftLeg  50.7014 10.4559 13.7666
LeftFoot  -9.10736 0.0954968 -1.84043
LeftToes  6.91183e-011 3.39355e-011 2.1261e-011
